<?xml version="1.0" encoding="UTF-8" standalone="no"?>
<!-- Created with Inkscape (http://www.inkscape.org/) -->

<svg
   width="6.5mm"
   height="10mm"
   viewBox="0 0 6.5 10"
   version="1.1"
   id="svg5"
   inkscape:version="1.1 (c4e8f9e, 2021-05-24)"
   sodipodi:docname="logo-white-transparent.svg"
   xmlns:inkscape="http://www.inkscape.org/namespaces/inkscape"
   xmlns:sodipodi="http://sodipodi.sourceforge.net/DTD/sodipodi-0.dtd"
   xmlns="http://www.w3.org/2000/svg"
   xmlns:svg="http://www.w3.org/2000/svg">
  <sodipodi:namedview
     id="namedview7"
     pagecolor="#ffffff"
     bordercolor="#666666"
     borderopacity="1.0"
     inkscape:pageshadow="2"
     inkscape:pageopacity="0.0"
     inkscape:pagecheckerboard="true"
     inkscape:document-units="mm"
     showgrid="false"
     showguides="false"
     inkscape:guide-bbox="true"
     inkscape:snap-global="true"
     inkscape:snap-bbox="false"
     inkscape:bbox-nodes="true"
     inkscape:snap-intersection-paths="true"
     inkscape:snap-bbox-midpoints="true"
     inkscape:zoom="5.6568542"
     inkscape:cx="40.393475"
     inkscape:cy="37.388271"
     inkscape:window-width="1389"
     inkscape:window-height="847"
     inkscape:window-x="0"
     inkscape:window-y="25"
     inkscape:window-maximized="0"
     inkscape:current-layer="layer1"
     width="40mm">
    <sodipodi:guide
       position="0,197"
       orientation="0,1"
       id="guide217"
       inkscape:label=""
       inkscape:locked="false"
       inkscape:color="rgb(0,0,255)" />
    <sodipodi:guide
       position="0,287"
       orientation="0,1"
       id="guide9550"
       inkscape:label=""
       inkscape:locked="false"
       inkscape:color="rgb(0,0,255)" />
    <sodipodi:guide
       position="0,277"
       orientation="0,1"
       id="guide9566"
       inkscape:label=""
       inkscape:locked="false"
       inkscape:color="rgb(0,0,255)" />
  </sodipodi:namedview>
  <defs
     id="defs2">
    <inkscape:path-effect
       effect="fillet_chamfer"
       id="path-effect859"
       is_visible="true"
       lpeversion="1"
       satellites_param="F,0,0,1,0,0.5,0,1 @ F,0,0,1,0,0.5,0,1 @ F,0,0,1,0,0.5,0,1"
       unit="mm"
       method="auto"
       mode="F"
       radius="0.75"
       chamfer_steps="1"
       flexible="false"
       use_knot_distance="true"
       apply_no_radius="true"
       apply_with_radius="true"
       only_selected="false"
       hide_knots="false" />
    <inkscape:path-effect
       effect="fillet_chamfer"
       id="path-effect3641"
       is_visible="true"
       lpeversion="1"
       satellites_param="F,0,0,1,0,0.5,0,1 @ F,0,0,1,0,0.5,0,1 @ F,0,0,1,0,0.5,0,1"
       unit="mm"
       method="auto"
       mode="F"
       radius="0.75"
       chamfer_steps="1"
       flexible="false"
       use_knot_distance="true"
       apply_no_radius="true"
       apply_with_radius="true"
       only_selected="false"
       hide_knots="false" />
    <inkscape:path-effect
       effect="fillet_chamfer"
       id="path-effect9564"
       is_visible="true"
       lpeversion="1"
       satellites_param="F,0,0,1,0,9.525,0,1 @ F,0,0,1,0,9.525,0,1 @ F,0,0,1,0,9.525,0,1"
       unit="px"
       method="auto"
       mode="F"
       radius="36"
       chamfer_steps="1"
       flexible="false"
       use_knot_distance="true"
       apply_no_radius="true"
       apply_with_radius="true"
       only_selected="false"
       hide_knots="false" />
    <inkscape:path-effect
       effect="fillet_chamfer"
       id="path-effect9442"
       is_visible="true"
       lpeversion="1"
       satellites_param="F,0,0,1,0,9.525,0,1 @ F,0,0,1,0,9.525,0,1 @ F,0,0,1,0,9.525,0,1"
       unit="px"
       method="auto"
       mode="F"
       radius="36"
       chamfer_steps="1"
       flexible="false"
       use_knot_distance="true"
       apply_no_radius="true"
       apply_with_radius="true"
       only_selected="false"
       hide_knots="false" />
  </defs>
  <g
     inkscape:label="Layer 1"
     id="layer1"
     transform="rotate(180,100,199.82683)">
    <path
       id="path2188"
       style="display:inline;fill:#ffffff;fill-opacity:1;stroke:#000000;stroke-width:0;stroke-linecap:butt;stroke-linejoin:miter;stroke-miterlimit:4;stroke-dasharray:none;stroke-opacity:1"
       inkscape:label="background"
       d="m 199.63705,399.65366 a 0.3626033,0.3626033 0 0 0 0.34468,-0.47542 l -3.0763,-9.41183 a 0.1634279,0.1634279 0 0 0 -0.31109,0 l -3.0763,9.41183 a 0.36260299,0.36260299 0 0 0 0.34468,0.47542 z m -4.13722,-0.74982 a 1,1 0 0 1 -0.99993,-1.00046 1,1 0 0 1 0.99993,-0.99994 1,1 0 0 1 0.99994,0.99994 1,1 0 0 1 -0.99994,1.00046 z m 2.41846,-5.2e-4 c -0.14193,0.002 -0.28529,-0.0258 -0.42013,-0.0858 -0.35958,-0.1601 -0.59841,-0.52576 -0.59841,-0.91933 v -6.31589 l 1.9513,6.01669 c 0.12163,0.37432 0.0115,0.78519 -0.28112,1.04851 -0.18279,0.16461 -0.41508,0.25224 -0.65164,0.2558 z m -1.91823,-2.49959 a 0.5,0.5 0 0 1 -0.50023,-0.50023 0.5,0.5 0 0 1 0.50023,-0.49971 0.5,0.5 0 0 1 0.49971,0.49971 0.5,0.5 0 0 1 -0.49971,0.50023 z" />
    <g
       id="g855"
       transform="translate(19.000155,8.9999995)"
       style="display:none">
      <path
         style="display:inline;fill:#000000;fill-opacity:1;stroke:#000000;stroke-width:0;stroke-linecap:butt;stroke-linejoin:miter;stroke-miterlimit:4;stroke-dasharray:none;stroke-opacity:1"
         d="m 176.59467,379.76666 -3.07629,9.41174 a 0.36260299,0.36260299 54.050153 0 0 0.34466,0.47526 h 5.77393 a 0.36260332,0.36260332 125.94987 0 0 0.34466,-0.47526 l -3.07628,-9.41174 a 0.16342791,0.16342791 2.4977867e-5 0 0 -0.31068,0 z"
         id="path847"
         sodipodi:nodetypes="cccc"
         inkscape:label="background"
         inkscape:original-d="m 176.75001,379.2914 -3.38697,10.36226 h 6.77393 z"
         inkscape:path-effect="#path-effect859" />
      <circle
         style="display:inline;fill:#ffffff;fill-opacity:1;fill-rule:evenodd;stroke-width:0.0132291"
         id="circle849"
         cx="176"
         cy="385.90366"
         r="0.5" />
      <circle
         style="display:inline;fill:#ffffff;fill-opacity:1;fill-rule:evenodd;stroke-width:0.0264584"
         id="circle851"
         cx="175.5"
         cy="387.90366"
         r="1" />
      <path
         style="display:inline;fill:#ffffff;fill-opacity:1;stroke:#000000;stroke-width:0;stroke-linecap:butt;stroke-linejoin:miter;stroke-miterlimit:4;stroke-dasharray:none;stroke-opacity:1"
         d="m 178.85116,387.59919 v 0 c 0.12163,0.37432 0.0117,0.78515 -0.28095,1.04847 -0.29247,0.26338 -0.71255,0.32989 -1.07211,0.16984 -0.35958,-0.1601 -0.5981,-0.52584 -0.5981,-0.91941 v -6.31593 z"
         id="path853"
         sodipodi:nodetypes="ccssccc" />
    </g>
  </g>
</svg>
